<?xml version="1.0" encoding="UTF-8" ?>
<!DOCTYPE svg PUBLIC "-//W3C//DTD SVG 1.1//EN" "http://www.w3.org/Graphics/SVG/1.1/DTD/svg11.dtd">
<svg width="717pt" height="610pt" viewBox="0 0 717 610" version="1.1" xmlns="http://www.w3.org/2000/svg">
<path fill="#000000" opacity="1.00" d=" M 421.05 33.08 C 438.13 10.69 470.25 1.68 496.59 11.47 C 538.54 29.51 580.88 46.70 622.49 65.50 C 649.89 80.49 663.26 116.48 652.76 145.81 C 646.06 163.13 637.06 179.75 631.91 197.60 C 645.37 204.24 659.42 210.36 671.29 219.65 C 681.96 235.89 667.99 257.60 650.02 259.99 C 658.62 285.83 662.43 312.67 663.34 339.78 C 683.52 339.73 707.42 349.07 712.56 370.78 C 716.11 391.90 696.26 405.61 679.83 413.90 C 693.23 424.93 703.80 448.24 687.70 461.76 C 662.20 480.85 628.02 471.44 598.75 470.56 C 517.32 528.45 410.01 531.68 314.69 519.42 C 309.03 531.06 307.25 544.24 305.63 556.96 C 280.48 552.70 260.11 530.06 262.30 503.78 C 253.09 520.13 246.93 538.15 245.63 556.96 C 220.72 552.69 199.79 530.23 202.75 503.94 C 192.92 491.33 184.15 476.95 184.44 460.21 C 154.52 430.43 134.15 389.78 133.77 346.94 C 114.09 360.76 95.49 376.12 76.05 390.31 C 63.72 377.22 53.94 361.99 42.79 347.92 C 65.10 334.72 88.00 322.42 110.31 309.19 C 77.27 312.80 44.15 315.58 11.01 318.17 C 9.09 299.50 8.60 280.69 9.12 261.94 C 41.25 265.72 73.52 268.66 105.54 273.51 C 77.06 257.51 48.56 241.47 19.89 225.78 C 26.91 209.66 35.48 194.23 42.23 177.99 C 78.46 206.29 113.36 236.34 149.14 265.23 C 183.08 192.82 250.82 140.70 325.85 116.11 C 312.60 97.83 337.54 80.78 354.49 82.20 C 367.15 85.48 379.65 89.33 391.83 94.08 C 402.86 74.34 407.25 51.29 421.05 33.08 M 433.89 52.92 L 433.17 53.19 C 429.56 61.40 425.97 69.61 422.70 77.95 C 418.88 85.42 416.21 93.40 412.75 101.02 C 479.87 127.90 546.46 156.26 611.88 187.13 C 615.39 179.19 618.28 170.99 622.09 163.18 C 625.77 154.79 629.39 146.37 632.94 137.92 L 632.60 137.25 C 640.53 115.43 626.97 89.54 605.78 81.22 C 567.80 65.33 529.98 49.02 492.06 33.01 C 471.57 22.63 444.26 32.93 433.89 52.92 M 343.00 132.97 C 280.87 151.30 222.25 188.62 186.29 243.27 C 158.02 282.57 146.01 335.16 160.99 382.00 C 165.30 399.67 175.07 415.79 185.94 430.24 C 183.16 421.08 183.94 411.46 184.95 402.09 C 190.90 384.12 210.23 376.40 227.13 372.12 C 263.51 363.21 304.38 364.41 336.30 342.24 C 303.09 375.25 251.93 374.02 214.14 399.02 C 205.07 404.77 201.24 416.36 205.41 426.40 C 230.04 397.24 270.16 387.94 306.39 383.27 C 286.31 392.55 265.48 401.43 247.06 414.07 C 226.91 427.34 202.00 446.71 207.56 474.13 C 224.89 436.92 264.41 417.03 302.39 407.38 C 273.07 427.49 241.50 448.71 226.07 481.99 C 219.60 495.42 222.68 511.93 233.38 522.32 C 237.84 485.30 265.31 456.11 295.09 436.08 C 333.07 408.18 387.42 384.46 393.84 331.69 C 398.13 347.41 395.88 364.79 389.66 379.69 C 375.17 409.10 346.33 426.96 320.87 445.93 C 304.74 457.96 288.16 470.05 275.65 486.00 C 326.23 503.91 381.04 506.35 434.22 503.27 C 480.78 498.36 528.63 489.29 569.17 464.71 C 558.62 462.74 548.28 458.29 537.50 458.17 C 521.25 454.42 504.98 450.16 488.43 448.15 C 479.92 455.19 468.22 470.71 457.03 461.74 C 451.33 449.88 467.91 446.73 473.84 439.87 C 496.18 418.90 484.13 382.11 461.78 366.26 C 452.10 362.81 455.87 344.68 467.10 350.50 C 479.26 356.66 487.48 368.51 494.26 380.01 C 543.42 368.00 592.02 353.21 641.76 343.60 C 641.77 333.43 641.18 323.29 640.89 313.13 C 639.42 313.10 636.48 313.04 635.01 313.01 C 634.99 321.66 634.99 330.32 634.99 338.98 C 626.65 339.02 618.31 339.00 609.99 339.01 C 610.05 330.34 610.05 321.68 609.99 313.01 C 600.65 312.94 591.31 312.94 581.99 313.04 C 577.00 312.99 571.99 312.95 567.03 312.93 C 566.95 304.63 566.94 296.33 567.01 288.03 C 589.96 287.94 612.91 287.94 635.86 288.16 C 633.38 275.59 628.97 263.52 624.39 251.60 C 543.71 222.98 465.57 187.74 387.88 152.00 C 380.54 148.31 373.20 143.09 365.22 141.22 C 362.06 138.77 358.61 136.15 354.46 135.88 L 355.22 135.69 C 351.69 133.19 347.50 130.45 343.00 132.97 M 653.63 355.48 C 601.94 365.77 551.25 380.37 500.18 393.15 C 500.92 398.64 501.81 404.13 502.30 409.66 C 550.30 414.83 599.31 417.14 647.10 409.11 C 666.56 404.96 690.36 398.35 698.89 378.42 C 698.98 357.45 670.14 350.45 653.63 355.48 M 655.53 422.01 C 604.65 432.50 552.52 427.12 501.15 424.10 C 499.80 427.52 498.42 430.98 498.04 434.67 C 532.73 443.43 567.95 449.73 603.16 455.93 C 626.56 457.48 651.69 464.13 673.93 453.94 C 692.55 445.55 671.21 414.20 655.53 422.01 M 286.90 511.83 C 288.03 516.01 291.10 519.14 293.63 522.54 C 293.85 519.84 293.91 516.99 294.10 514.35 C 291.73 513.41 289.34 512.53 286.90 511.83 Z" />
<path fill="#c3996b" opacity="1.00" d=" M 433.89 52.92 C 444.26 32.93 471.57 22.63 492.06 33.01 C 529.98 49.02 567.80 65.33 605.78 81.22 C 626.97 89.54 640.53 115.43 632.60 137.25 C 629.27 130.49 626.14 123.60 622.10 117.23 C 628.69 109.38 619.78 100.86 613.18 96.75 C 601.20 89.78 586.48 83.87 572.57 88.54 C 543.22 75.19 513.22 63.23 483.62 50.41 C 467.54 43.46 449.38 45.65 433.89 52.92 Z" />
<path fill="#a87c4f" opacity="1.00" d=" M 433.89 52.92 C 449.38 45.65 467.54 43.46 483.62 50.41 C 513.22 63.23 543.22 75.19 572.57 88.54 C 569.46 111.47 604.59 119.96 622.10 117.23 C 626.14 123.60 629.27 130.49 632.60 137.25 L 632.94 137.92 C 629.39 146.37 625.77 154.79 622.09 163.18 C 555.61 134.83 488.83 107.08 422.70 77.95 C 425.97 69.61 429.56 61.40 433.17 53.19 L 433.89 52.92 Z" />
<path fill="#8a5d3b" opacity="1.00" d=" M 412.75 101.02 C 416.21 93.40 418.88 85.42 422.70 77.95 C 488.83 107.08 555.61 134.83 622.09 163.18 C 618.28 170.99 615.39 179.19 611.88 187.13 C 546.46 156.26 479.87 127.90 412.75 101.02 Z" />
<path fill="#ffffff" opacity="1.00" d=" M 572.57 88.54 C 586.48 83.87 601.20 89.78 613.18 96.75 C 619.78 100.86 628.69 109.38 622.10 117.23 C 604.59 119.96 569.46 111.47 572.57 88.54 Z" />
<path fill="#d0ecf4" opacity="1.00" d=" M 343.00 132.97 C 347.50 130.45 351.69 133.19 355.22 135.69 L 354.46 135.88 C 336.09 140.96 316.82 144.87 299.93 154.00 C 321.59 149.25 343.23 144.28 365.22 141.22 C 373.20 143.09 380.54 148.31 387.88 152.00 C 359.93 156.83 329.87 161.16 304.98 175.05 C 297.05 160.32 271.43 168.58 276.52 185.74 C 243.88 200.45 214.05 220.80 186.29 243.27 C 222.25 188.62 280.87 151.30 343.00 132.97 Z" />
<path fill="#feffff" opacity="1.00" d=" M 299.93 154.00 C 316.82 144.87 336.09 140.96 354.46 135.88 C 358.61 136.15 362.06 138.77 365.22 141.22 C 343.23 144.28 321.59 149.25 299.93 154.00 Z" />
<path fill="#5bc9e1" opacity="1.00" d=" M 304.98 175.05 C 329.87 161.16 359.93 156.83 387.88 152.00 C 465.57 187.74 543.71 222.98 624.39 251.60 C 628.97 263.52 633.38 275.59 635.86 288.16 C 612.91 287.94 589.96 287.94 567.01 288.03 C 566.94 296.33 566.95 304.63 567.03 312.93 C 571.99 312.95 577.00 312.99 581.99 313.04 C 581.96 321.68 581.98 330.32 582.03 338.96 C 591.34 339.02 600.67 339.03 609.99 339.01 C 618.31 339.00 626.65 339.02 634.99 338.98 C 634.99 330.32 634.99 321.66 635.01 313.01 C 636.48 313.04 639.42 313.10 640.89 313.13 C 641.18 323.29 641.77 333.43 641.76 343.60 C 592.02 353.21 543.42 368.00 494.26 380.01 C 487.48 368.51 479.26 356.66 467.10 350.50 C 455.87 344.68 452.10 362.81 461.78 366.26 C 484.13 382.11 496.18 418.90 473.84 439.87 C 467.91 446.73 451.33 449.88 457.03 461.74 C 468.22 470.71 479.92 455.19 488.43 448.15 C 504.98 450.16 521.25 454.42 537.50 458.17 C 515.28 467.22 491.52 473.73 467.43 473.84 C 441.64 467.75 420.70 449.09 395.06 442.56 C 376.01 437.02 361.96 455.47 343.34 453.79 C 335.37 452.79 328.09 449.23 320.87 445.93 C 346.33 426.96 375.17 409.10 389.66 379.69 C 395.88 364.79 398.13 347.41 393.84 331.69 C 387.42 384.46 333.07 408.18 295.09 436.08 C 265.31 456.11 237.84 485.30 233.38 522.32 C 222.68 511.93 219.60 495.42 226.07 481.99 C 241.50 448.71 273.07 427.49 302.39 407.38 C 264.41 417.03 224.89 436.92 207.56 474.13 C 202.00 446.71 226.91 427.34 247.06 414.07 C 265.48 401.43 286.31 392.55 306.39 383.27 C 270.16 387.94 230.04 397.24 205.41 426.40 C 201.24 416.36 205.07 404.77 214.14 399.02 C 251.93 374.02 303.09 375.25 336.30 342.24 C 304.38 364.41 263.51 363.21 227.13 372.12 C 210.23 376.40 190.90 384.12 184.95 402.09 C 176.58 395.87 168.45 389.29 160.99 382.00 C 146.01 335.16 158.02 282.57 186.29 243.27 C 214.05 220.80 243.88 200.45 276.52 185.74 C 284.37 200.94 312.81 193.94 304.98 175.05 M 254.70 201.46 C 236.90 207.30 222.64 220.70 210.78 234.78 C 198.33 250.33 183.10 268.40 186.73 289.74 C 191.08 297.51 201.96 293.31 208.38 290.34 C 236.25 274.77 258.98 248.31 269.12 217.94 C 274.04 208.13 265.40 196.97 254.70 201.46 M 455.01 291.03 C 454.95 299.34 454.95 307.66 455.02 315.98 C 456.77 315.99 460.27 316.00 462.02 316.01 C 461.94 324.66 461.94 333.31 462.02 341.97 C 474.01 342.06 486.01 342.05 498.01 341.97 C 506.33 342.10 514.65 342.04 522.98 341.97 C 522.99 333.00 523.01 324.04 523.01 315.08 C 525.66 315.03 528.32 314.98 530.98 314.93 C 531.06 306.97 531.04 299.00 530.99 291.04 C 505.66 290.95 480.34 290.97 455.01 291.03 Z" />
<path fill="#ffffff" opacity="1.00" d=" M 276.52 185.74 C 271.43 168.58 297.05 160.32 304.98 175.05 C 312.81 193.94 284.37 200.94 276.52 185.74 Z" />
<path fill="#ffffff" opacity="1.00" d=" M 254.70 201.46 C 265.40 196.97 274.04 208.13 269.12 217.94 C 258.98 248.31 236.25 274.77 208.38 290.34 C 201.96 293.31 191.08 297.51 186.73 289.74 C 183.10 268.40 198.33 250.33 210.78 234.78 C 222.64 220.70 236.90 207.30 254.70 201.46 Z" />
<path fill="#000000" opacity="1.00" d=" M 455.01 291.03 C 480.34 290.97 505.66 290.95 530.99 291.04 C 531.04 299.00 531.06 306.97 530.98 314.93 C 528.32 314.98 525.66 315.03 523.01 315.08 C 523.01 324.04 522.99 333.00 522.98 341.97 C 514.65 342.04 506.33 342.10 498.01 341.97 C 498.02 333.32 498.00 324.68 497.97 316.04 C 485.98 315.95 474.00 315.97 462.02 316.01 C 460.27 316.00 456.77 315.99 455.02 315.98 C 454.95 307.66 454.95 299.34 455.01 291.03 Z" />
<path fill="#ffffff" opacity="1.00" d=" M 581.99 313.04 C 591.31 312.94 600.65 312.94 609.99 313.01 C 610.05 321.68 610.05 330.34 609.99 339.01 C 600.67 339.03 591.34 339.02 582.03 338.96 C 581.98 330.32 581.96 321.68 581.99 313.04 Z" />
<path fill="#ffffff" opacity="1.00" d=" M 462.02 316.01 C 474.00 315.97 485.98 315.95 497.97 316.04 C 498.00 324.68 498.02 333.32 498.01 341.97 C 486.01 342.05 474.01 342.06 462.02 341.97 C 461.94 333.31 461.94 324.66 462.02 316.01 Z" />
<path fill="#f6921e" opacity="1.00" d=" M 653.63 355.48 C 670.14 350.45 698.98 357.45 698.89 378.42 C 690.36 398.35 666.56 404.96 647.10 409.11 C 599.31 417.14 550.30 414.83 502.30 409.66 C 501.81 404.13 500.92 398.64 500.18 393.15 C 551.25 380.37 601.94 365.77 653.63 355.48 M 667.87 365.15 C 663.76 376.10 684.08 375.89 680.14 365.28 C 676.49 362.34 671.73 362.99 667.87 365.15 M 603.20 379.20 C 603.04 379.89 602.72 381.26 602.56 381.94 C 621.60 386.30 649.98 385.03 663.43 369.40 C 643.74 362.90 621.21 370.33 603.20 379.20 Z" />
<path fill="#ffffff" opacity="1.00" d=" M 667.87 365.15 C 671.73 362.99 676.49 362.34 680.14 365.28 C 684.08 375.89 663.76 376.10 667.87 365.15 Z" />
<path fill="#ffffff" opacity="1.00" d=" M 603.20 379.20 C 621.21 370.33 643.74 362.90 663.43 369.40 C 649.98 385.03 621.60 386.30 602.56 381.94 C 602.72 381.26 603.04 379.89 603.20 379.20 Z" />
<path fill="#00aeef" opacity="1.00" d=" M 160.99 382.00 C 168.45 389.29 176.58 395.87 184.95 402.09 C 183.94 411.46 183.16 421.08 185.94 430.24 C 175.07 415.79 165.30 399.67 160.99 382.00 Z" />
<path fill="#f05a28" opacity="1.00" d=" M 655.53 422.01 C 671.21 414.20 692.55 445.55 673.93 453.94 C 651.69 464.13 626.56 457.48 603.16 455.93 C 567.95 449.73 532.73 443.43 498.04 434.67 C 498.42 430.98 499.80 427.52 501.15 424.10 C 552.52 427.12 604.65 432.50 655.53 422.01 M 622.97 445.26 C 622.91 445.92 622.80 447.23 622.75 447.89 C 635.04 453.76 650.80 452.76 663.27 447.88 C 663.22 447.22 663.14 445.89 663.09 445.23 C 650.86 439.39 635.40 440.38 622.97 445.26 Z" />
<path fill="#00aeef" opacity="1.00" d=" M 343.34 453.79 C 361.96 455.47 376.01 437.02 395.06 442.56 C 420.70 449.09 441.64 467.75 467.43 473.84 C 491.52 473.73 515.28 467.22 537.50 458.17 C 548.28 458.29 558.62 462.74 569.17 464.71 C 528.63 489.29 480.78 498.36 434.22 503.27 C 381.04 506.35 326.23 503.91 275.65 486.00 C 288.16 470.05 304.74 457.96 320.87 445.93 C 328.09 449.23 335.37 452.79 343.34 453.79 Z" />
<path fill="#ffffff" opacity="1.00" d=" M 622.97 445.26 C 635.40 440.38 650.86 439.39 663.09 445.23 C 663.14 445.89 663.22 447.22 663.27 447.88 C 650.80 452.76 635.04 453.76 622.75 447.89 C 622.80 447.23 622.91 445.92 622.97 445.26 Z" />
<path fill="#5bc8e0" opacity="1.00" d=" M 286.90 511.83 C 289.34 512.53 291.73 513.41 294.10 514.35 C 293.91 516.99 293.85 519.84 293.63 522.54 C 291.10 519.14 288.03 516.01 286.90 511.83 Z" />
</svg>
