<?xml version="1.0" ?><!DOCTYPE svg  PUBLIC '-//W3C//DTD SVG 1.1//EN'  'http://www.w3.org/Graphics/SVG/1.1/DTD/svg11.dtd' [
	<!ENTITY stroke_color "#666666">
	<!ENTITY fill_color "#ffffff">
]><svg height="216.000000pt" id="svg2" inkscape:version="0.48.4 r9939" preserveAspectRatio="xMidYMid meet" sodipodi:docname="QQQiUisU2I.svg" version="1.0" viewBox="0 0 216.000000 216.000000" width="216.000000pt" xmlns="http://www.w3.org/2000/svg" xmlns:cc="http://creativecommons.org/ns#" xmlns:dc="http://purl.org/dc/elements/1.1/" xmlns:inkscape="http://www.inkscape.org/namespaces/inkscape" xmlns:rdf="http://www.w3.org/1999/02/22-rdf-syntax-ns#" xmlns:sodipodi="http://sodipodi.sourceforge.net/DTD/sodipodi-0.dtd" xmlns:svg="http://www.w3.org/2000/svg">
  <defs id="defs36"/>
  <sodipodi:namedview bordercolor="#666666" borderopacity="1" gridtolerance="10" guidetolerance="10" id="namedview34" inkscape:current-layer="svg2" inkscape:cx="135" inkscape:cy="135" inkscape:pageopacity="0" inkscape:pageshadow="2" inkscape:window-height="744" inkscape:window-maximized="1" inkscape:window-width="1301" inkscape:window-x="65" inkscape:window-y="24" inkscape:zoom="0.87407407" objecttolerance="10" pagecolor="#ffffff" showgrid="false"/>
  <metadata id="metadata4">
Created by potrace 1.10, written by Peter Selinger 2001-2011
<rdf:RDF>
  <cc:Work rdf:about="">
    <dc:format>image/svg+xml</dc:format>
    <dc:type rdf:resource="http://purl.org/dc/dcmitype/StillImage"/>
  </cc:Work>
</rdf:RDF>
</metadata>
  <g fill="&stroke_color;" id="g6" stroke="none" transform="translate(0.000000,216.000000) scale(0.100000,-0.100000)">
    <path d="M890 2078 c-19 -5 -57 -13 -85 -17 -27 -4 -60 -12 -72 -19 -12 -7 -32 -12 -45 -12 -13 0 -33 -7 -44 -15 -10 -8 -26 -15 -35 -15 -9 0 -22 -7 -29 -15 -7 -8 -19 -15 -27 -15 -8 0 -32 -13 -53 -30 -21 -16 -43 -30 -49 -30 -38 0 -281 -305 -281 -353 0 -8 -7 -20 -15 -27 -8 -7 -15 -18 -15 -25 0 -8 -6 -26 -14 -42 -20 -42 -46 -127 -46 -154 0 -13 -7 -46 -15 -73 -20 -67 -20 -295 0 -362 8 -27 15 -65 15 -84 0 -19 7 -44 15 -54 8 -11 15 -31 15 -44 0 -13 6 -36 14 -50 7 -15 31 -62 52 -105 57 -115 64 -127 75 -127 5 0 9 -6 9 -13 0 -24 193 -212 273 -265 43 -29 82 -52 88 -52 6 0 23 -6 37 -14 79 -40 174 -55 386 -62 90 -3 143 -1 149 5 6 6 34 11 63 11 129 0 311 100 476 262 69 69 187 223 204 268 3 8 10 22 15 30 5 8 12 22 15 30 3 8 10 23 15 32 11 21 41 120 60 193 16 66 23 360 9 394 -6 15 -14 49 -19 76 -21 121 -114 305 -210 417 -70 81 -179 188 -192 188 -5 0 -19 8 -30 18 -20 20 -157 89 -219 111 -104 38 -410 62 -490 39z m430 -128 c94 -28 212 -85 282 -139 68 -51 184 -178 225 -246 35 -58 83 -159 83 -174 0 -9 5 -22 12 -29 7 -7 15 -36 19 -64 4 -29 12 -73 18 -98 13 -57 13 -220 0 -285 -6 -27 -13 -74 -18 -103 -4 -28 -12 -57 -19 -64 -7 -7 -12 -21 -12 -31 0 -17 -12 -45 -41 -97 -5 -8 -15 -28 -22 -45 -18 -38 -122 -172 -155 -200 -40 -33 -59 -52 -63 -62 -2 -5 -38 -35 -79 -67 -68 -53 -222 -136 -253 -136 -6 0 -30 -7 -52 -15 -58 -21 -363 -21 -391 0 -10 8 -31 15 -46 15 -14 0 -39 6 -55 14 -15 8 -59 28 -96 46 -37 18 -82 46 -100 61 -18 16 -37 29 -42 29 -6 0 -31 21 -57 48 -25 26 -51 52 -57 57 -49 47 -141 177 -141 199 0 8 -7 19 -15 26 -8 7 -15 20 -15 29 0 9 -7 25 -15 35 -8 11 -15 30 -15 43 0 12 -6 37 -14 55 -37 88 -58 346 -36 453 7 33 16 78 20 100 19 95 78 219 151 315 63 84 162 180 184 180 8 0 15 7 15 15 0 9 9 15 21 15 13 0 23 8 26 20 4 14 11 19 24 15 12 -4 22 1 29 15 8 14 17 19 30 15 13 -4 22 1 30 15 8 14 17 19 30 15 10 -3 38 3 61 14 72 32 136 40 309 36 135 -2 179 -7 240 -25z" id="path8"/>
    <path d="M865 1479 c-4 -5 -4 -21 -1 -35 l7 -26 110 3 c120 3 129 -1 129 -53 0 -23 5 -28 25 -29 14 -1 31 -2 38 -3 7 -1 14 17 17 44 4 35 9 45 23 44 9 0 44 -1 77 -2 l60 -2 0 -40 c0 -40 0 -40 40 -40 40 0 40 0 40 -40 l0 -40 45 0 45 0 0 -125 0 -125 -164 0 -165 0 -3 43 -3 42 -42 -3 -42 -2 -3 122 -3 123 -30 0 -30 0 0 -120 0 -120 33 -3 c30 -3 32 -6 32 -43 l0 -39 45 0 45 0 0 -41 0 -41 237 5 237 4 8 28 c10 38 3 45 -41 45 l-38 0 5 116 c5 126 3 134 -50 134 -26 0 -28 3 -28 40 0 40 0 40 -40 40 -37 0 -40 2 -40 28 0 36 -13 54 -41 57 -13 1 -27 3 -31 4 -5 0 -8 15 -8 31 l0 30 -244 0 c-161 0 -247 -4 -251 -11z" id="path10"/>
    <path d="M708 1396 c-9 -47 0 -54 70 -58 78 -5 95 5 86 48 l-6 31 -73 0 c-66 0 -74 -2 -77 -21z" id="path12"/>
    <path d="M627 1333 c-4 -3 -7 -24 -7 -45 l0 -38 -70 6 c-79 8 -100 -2 -100 -47 0 -24 -4 -28 -32 -31 l-33 -3 0 -125 0 -125 30 -5 c25 -5 30 -10 27 -32 -3 -29 20 -48 57 -48 27 0 34 -14 40 -90 l6 -65 35 0 c34 0 35 1 40 45 l5 45 80 0 80 0 3 37 c3 35 5 37 40 40 34 3 37 6 42 38 5 32 8 35 43 38 l38 3 -3 82 -3 82 -37 3 c-34 3 -38 6 -38 30 0 43 -13 55 -49 47 -66 -14 -46 -91 20 -78 33 6 34 3 23 -106 -7 -60 -8 -62 -31 -56 -33 8 -53 -11 -53 -50 l0 -33 -121 -1 -121 -1 6 34 c8 39 -1 48 -48 50 l-31 1 -3 122 -3 122 148 -4 c83 -2 155 1 165 6 11 6 18 21 18 39 0 27 -3 29 -42 32 -43 3 -43 3 -46 46 -3 40 -5 42 -36 42 -18 0 -36 -3 -39 -7z" id="path14"/>
    <path d="M1349 1245 c0 -3 -1 -35 -2 -72 0 -64 1 -69 25 -77 48 -17 58 -4 58 79 l0 75 -40 0 c-22 0 -40 -2 -41 -5z" id="path16"/>
    <path d="M1106 921 c-11 -18 6 -71 23 -71 43 0 61 13 61 40 0 20 -6 29 -22 34 -33 8 -56 7 -62 -3z" id="path18"/>
    <path d="M1684 916 c-3 -8 -4 -25 -2 -38 2 -19 9 -23 38 -23 33 0 35 2 35 35 0 32 -3 35 -33 38 -21 2 -34 -2 -38 -12z" id="path20"/>
    <path d="M1040 850 c-6 -4 -12 -23 -13 -41 -2 -33 -1 -34 38 -34 39 0 40 1 40 34 0 29 -4 36 -26 42 -15 3 -32 3 -39 -1z" id="path22"/>
    <path d="M1194 826 c-14 -58 -11 -58 192 -52 213 6 228 3 218 -49 -5 -31 -4 -33 26 -40 18 -4 36 -3 40 1 5 5 6 42 2 82 l-7 73 -232 5 -232 5 -7 -25z" id="path24"/>
    <path d="M1106 746 c-10 -42 2 -57 43 -54 34 3 36 5 36 38 0 33 -2 35 -36 38 -32 3 -37 0 -43 -22z" id="path26"/>
    <path d="M682 683 l-63 -4 3 -37 3 -36 75 0 74 0 7 32 c5 26 3 35 -12 42 -10 6 -19 9 -21 8 -2 -1 -31 -3 -66 -5z" id="path28"/>
    <path d="M1198 668 c-2 -6 -2 -23 0 -37 l4 -26 189 1 c124 0 193 4 201 12 6 6 8 22 4 36 l-6 26 -194 0 c-139 0 -195 -3 -198 -12z" id="path30"/>
    <path d="M828 602 c-40 -3 -47 -6 -53 -29 -3 -14 -2 -29 2 -34 11 -11 403 -14 413 -3 5 5 6 21 3 37 -5 26 -8 27 -67 28 -178 4 -255 4 -298 1z" id="path32"/>
  </g>
  <path d="m 106.78179,257.25607 c -2.11727,-0.91923 -4.9862,-1.67132 -6.37541,-1.67132 -3.842071,0 -22.804441,-9.6312 -32.719842,-16.61878 -9.296222,-6.55123 -18.928369,-16.24069 -26.898346,-27.05843 -4.778722,-6.48621 -15.376722,-26.97182 -15.404647,-29.77672 -0.0081,-0.81539 -0.977297,-4.5715 -2.153731,-8.34692 -3.172458,-10.18108 -5.079022,-29.34286 -4.396748,-44.18917 0.948764,-20.64517 6.375317,-37.833603 17.21404,-54.524916 6.658082,-10.253249 16.648029,-21.769123 22.545555,-25.989306 2.637997,-1.887711 5.629814,-4.333156 6.64848,-5.434322 1.018668,-1.101165 2.491838,-2.002118 3.273712,-2.002118 0.781876,0 1.972649,-1.029661 2.646164,-2.288136 0.673515,-1.258474 2.173082,-2.288135 3.332371,-2.288135 1.159288,0 2.748705,-0.772246 3.532036,-1.716102 0.78333,-0.943856 2.327822,-1.716102 3.432203,-1.716102 1.104381,0 2.648873,-0.772246 3.432204,-1.716101 0.78333,-0.943856 2.480862,-1.716102 3.772294,-1.716102 1.291431,0 6.24799,-1.40106 11.014576,-3.113467 8.383159,-3.011671 9.414639,-3.110471 31.547879,-3.021829 25.0601,0.100364 30.58348,0.989794 45.49448,7.32598 12.61417,5.360186 23.98226,12.963059 32.96795,22.04867 14.51605,14.677449 21.6872,25.654868 28.91392,44.260646 8.66313,22.30391 8.52903,57.90133 -0.31218,82.87005 -9.37292,26.47036 -36.32207,55.75622 -64.36642,69.9475 -13.71583,6.94063 -21.81061,8.50184 -43.81883,8.45123 -14.47593,-0.0333 -20.45988,-0.47361 -23.32171,-1.7161 z m 43.04424,-56.58658 c 0.62337,-6.01595 -0.21752,-6.2561 -23.42065,-6.68876 -25.63036,-0.47791 -29.354844,0.17434 -29.854147,5.22813 -0.261729,2.64915 0.175855,3.69526 1.716102,4.10258 1.137075,0.30071 13.136265,0.47282 26.664865,0.38247 l 24.59746,-0.16425 0.29637,-2.86017 z M 97.897554,192.375 c 2.049195,-7.64655 -0.657094,-9.43504 -12.585415,-8.31726 -8.308392,0.77855 -8.430783,0.83708 -8.430783,4.03104 0,6.48418 0.595384,6.86037 10.857612,6.86037 8.852323,0 9.513649,-0.16758 10.158586,-2.57415 z m 96.191956,1.83279 c 5.79644,-0.79449 7.01421,-2.18143 5.88072,-6.69764 l -0.71721,-2.85761 -23.33802,0 c -12.83592,0 -24.15238,0.31249 -25.1477,0.69444 -1.81836,0.69777 -2.59886,7.28756 -1.04696,8.83946 0.97993,0.97994 37.24818,0.99738 44.36917,0.0214 l 0,-4e-5 z M 77.397322,182.07839 c 0.307759,-1.41578 0.70369,-3.86123 0.879848,-5.43432 0.311256,-2.77951 0.602568,-2.8695 10.330881,-3.19073 9.183289,-0.30324 10.010593,-0.5222 10.010593,-2.64936 0,-3.74162 2.176226,-6.74333 4.902546,-6.76217 3.68471,-0.0255 5.00626,-1.23608 5.91327,-5.41681 0.66356,-3.0586 1.34868,-3.72133 3.86195,-3.73574 5.54922,-0.0318 6.0369,-1.07063 5.67674,-12.09195 l -0.33332,-10.19985 -4.57627,-0.57204 c -4.21572,-0.52696 -4.62134,-0.88752 -5.14831,-4.57627 -0.50834,-3.55842 -0.99433,-4.04477 -4.36499,-4.36831 -4.45462,-0.42759 -7.075684,1.3696 -7.075684,4.85162 0,3.518 2.140548,5.23703 6.521184,5.23703 3.74307,0 3.77532,0.0466 3.76283,5.43432 -0.007,2.98888 -0.3317,7.36494 -0.72172,9.72458 -0.61305,3.70894 -1.1229,4.29025 -3.76283,4.29025 -4.066077,0 -5.799464,1.94911 -5.799464,6.52119 l 0,3.77542 -14.674737,0 -14.674736,0 0.505277,-3.44268 c 0.664659,-4.5286 -1.435402,-6.85393 -6.189957,-6.85393 l -3.864152,0 0,-13.0632 c 0,-7.18477 -0.270444,-13.76798 -0.600985,-14.62936 -0.494469,-1.28856 2.840395,-1.55861 18.815824,-1.52365 11.521893,0.0252 19.854629,-0.4227 20.493585,-1.10158 1.766487,-1.87688 2.495104,-5.60993 1.426994,-7.31115 -0.549333,-0.87495 -2.983025,-1.91128 -5.408204,-2.30296 -4.129049,-0.66686 -4.445789,-1.00218 -4.981451,-5.27359 -0.546918,-4.36118 -0.767845,-4.57749 -5.031855,-4.92664 -5.093107,-0.41705 -6.365295,0.85121 -6.391304,6.37154 l -0.01752,3.71822 -9.012457,0 c -9.580894,0 -10.827697,0.60544 -12.15744,5.90356 -0.580696,2.31367 -1.685014,3.204 -4.668247,3.76366 l -3.907619,0.73307 0,15.79961 0,15.79961 3.718221,1.06173 c 2.70594,0.77268 3.825932,1.83001 4.113859,3.88372 0.543627,3.87754 2.258606,5.68216 5.399912,5.68216 3.352082,0 6.217161,4.0056 6.217161,8.69207 0,1.98366 0.321769,5.2155 0.715042,7.18187 0.652496,3.26248 1.100921,3.57521 5.126508,3.57521 3.646346,0 4.508515,-0.44646 4.971026,-2.57415 z m 131.973228,-7.13521 c -0.2803,-5.34015 -0.73098,-9.90295 -1.00153,-10.13954 -0.27055,-0.2366 -13.67909,-0.77265 -29.79677,-1.19123 l -29.30487,-0.76104 -0.69697,4.29493 c -0.38988,2.40253 -0.17991,4.81104 0.47655,5.46627 0.72488,0.72354 10.22622,1.17133 24.85353,1.17133 13.02401,0 24.36979,0.44507 25.21285,0.98907 1.0234,0.66037 1.30408,2.20843 0.84452,4.65808 -0.86348,4.60273 -0.22436,5.22149 5.39324,5.22149 l 4.52905,0 -0.5096,-9.70936 0,0 z m -60.61627,4.77789 c 0.49365,-4.30526 -1.57401,-6.50921 -6.10671,-6.50921 -3.90971,0 -5.13062,1.47426 -5.13062,6.19527 0,3.63626 1.00053,4.25556 6.25087,3.86916 4.11363,-0.30275 4.65802,-0.69088 4.98646,-3.55522 l 0,0 z m -10.09326,-10.37336 c 0,-4.63707 -2.17143,-6.72814 -6.46852,-6.22911 -2.59711,0.30161 -3.32149,1.09204 -3.98164,4.34466 -0.44383,2.18678 -0.56046,4.37481 -0.25919,4.86228 0.30128,0.48748 2.83413,0.88632 5.62856,0.88632 5.00881,0 5.08079,-0.0547 5.08079,-3.86415 z m 8.92373,-6.66127 c 0.75508,-0.75508 1.37288,-2.73886 1.37288,-4.40839 0,-2.95566 0.23025,-3.05498 8.75312,-3.77542 4.81422,-0.40696 18.19001,-0.73992 29.72397,-0.73992 l 20.97084,0 0.69514,-2.76968 c 1.32129,-5.26442 0.25279,-6.92888 -4.68202,-7.29352 l -4.58278,-0.33862 0.42865,-12.52325 c 0.55574,-16.23661 0.18636,-17.57287 -5.22746,-18.91014 -3.9248,-0.96947 -4.35319,-1.45473 -4.67218,-5.29241 -0.32943,-3.9632 -0.61121,-4.24684 -4.54609,-4.57627 -3.82019,-0.31982 -4.30825,-0.75998 -5.46373,-4.927464 -1.09013,-3.931801 -1.85969,-4.725525 -5.4645,-5.636096 -3.77736,-0.954158 -4.19567,-1.438942 -4.19567,-4.862288 l 0,-3.802464 -17.55344,0 c -9.65438,0 -23.81222,0.336533 -31.46186,0.74785 l -13.90843,0.747851 0,3.664942 0,3.664941 -9.241111,0.6334 c -5.082608,0.348369 -9.386243,0.808058 -9.563632,1.02153 -1.090144,1.311887 -1.531093,6.389893 -0.675131,7.774868 1.356671,2.19514 14.808794,3.08137 18.312184,1.20641 2.13926,-1.1449 2.46731,-2.043 1.9379,-5.305377 l -0.63729,-3.927174 14.47915,0.319702 14.47916,0.319702 1.01464,4.297406 c 0.7303,3.093091 1.7585,4.484101 3.66898,4.963601 4.9948,1.25362 6.71724,0.14407 7.73054,-4.979797 l 0.95977,-4.853244 9.08522,0 9.08521,0 0,4.453868 c 0,4.682813 1.24346,5.842743 6.26354,5.842743 2.82139,0 4.03307,1.91858 4.03307,6.38594 0,2.51622 0.46592,2.7666 5.1483,2.7666 l 5.14831,0 0,15.44492 0,15.44491 -20.02119,0 -20.02118,0 0,-5.1483 0,-5.14831 -5.01488,0 c -6.20963,0 -6.38892,-0.50398 -6.41018,-18.01907 l -0.0156,-12.87076 -4.60856,0 -4.60855,0 0.3183,15.73093 0.3183,15.73094 3.65832,0.35403 c 3.37651,0.32676 3.71701,0.74539 4.42016,5.43432 l 0.76184,5.08029 5.01839,0 5.01841,0 0,4.87054 0,4.87052 -5.14831,-0.40946 c -4.91688,-0.39105 -5.1483,-0.27233 -5.1483,2.64113 0,4.7915 1.98656,7.47642 5.53177,7.47642 1.73973,0 3.78094,-0.61779 4.53603,-1.37288 l 0,0 z m 70.95986,0.37734 c 0.9111,-0.57765 1.36713,-2.50875 1.14407,-4.84476 -0.35397,-3.70713 -0.5796,-3.88427 -4.94715,-3.88427 -4.21825,0 -4.60633,0.2641 -4.96044,3.37579 -0.56312,4.94832 4.51222,8.04863 8.76352,5.35324 l 0,0 z m -40.58702,-30.42606 c 0.3537,-0.92171 0.99462,-5.55518 1.42428,-10.29661 l 0.78119,-8.62077 -5.87814,0 -5.87814,0 -0.11592,4.86229 c -0.22469,9.42544 0.29024,12.88538 2.12836,14.30084 2.52325,1.94307 6.75134,1.80523 7.53837,-0.24575 l 0,0 z" id="path3021" inkscape:connector-curvature="0" style="fill:&fill_color;;fill-opacity:1;stroke:&fill_color;;stroke-width:1.14406776;stroke-opacity:1" transform="scale(0.8,0.8)"/>
</svg>